# This file uses centimeters as units for non-parametric coordinates.

mtllib eth logo.mtl
g default
v 3.581211 2.584991 0.023820
v 3.562648 2.582305 -0.042840
v 3.592748 2.636207 -0.029199
v 3.563548 2.690323 -0.043866
v 3.582065 2.688602 0.022829
v 3.559415 2.687397 0.067988
v 3.586453 2.637314 0.081584
v 3.558580 2.587426 0.068934
v -0.032771 4.725928 -1.686830
v -0.035303 4.708648 -1.628093
v 0.019087 4.721691 -1.638245
v 0.073345 4.707336 -1.625836
v 0.072726 4.724938 -1.685117
v 0.071954 4.715428 -1.738912
v 0.020905 4.728792 -1.750340
v -0.030680 4.716258 -1.740500
v 0.068528 2.556702 -5.994862
v 0.016053 2.557397 -5.966261
v 0.016994 2.609096 -5.999653
v 0.016927 2.661428 -5.967251
v 0.069389 2.660705 -5.995834
v 0.120939 2.660580 -5.965645
v 0.121026 2.608248 -5.998056
v 0.120085 2.556550 -5.964664
v -0.055959 2.634985 2.139724
v -0.003734 2.634441 2.126155
v -0.003798 2.686755 2.156764
v -0.002871 2.738462 2.125174
v -0.055094 2.739042 2.138734
v -0.106882 2.739310 2.123559
v -0.107783 2.687602 2.155158
v -0.107746 2.635280 2.124558
v -3.626666 2.643612 -0.087053
v -3.605404 2.645700 -0.041261
v -3.632849 2.696042 -0.029449
v -3.604578 2.745662 -0.042206
v -3.625808 2.747232 -0.088026
v -3.605221 2.748632 -0.154132
v -3.635731 2.695007 -0.140375
v -3.606111 2.640623 -0.153106
v -0.067140 0.575686 -1.647407
v -0.064892 0.584295 -1.701247
v -0.013518 0.570734 -1.710846
v 0.037744 0.583456 -1.699659
v 0.038187 0.574829 -1.645793
v 0.038920 0.593243 -1.587341
v -0.015172 0.579807 -1.599144
v -0.069367 0.594117 -1.589009
v 3.610130 2.636698 0.036693
v 0.020175 4.738712 -1.696786
v 0.069454 2.608391 -6.028227
v -0.056004 2.687317 2.170333
v -3.655135 2.695783 -0.075045
v -0.014426 0.561795 -1.657149
v -3.517034 2.666415 0.902255
v -3.526576 2.650571 0.975177
v -3.554964 2.704767 0.957281
v -3.525684 2.758812 0.974151
v -3.516396 2.741424 0.901541
v -3.534152 2.703598 0.853135
v -0.112889 2.671607 5.859857
v -0.060456 2.670911 5.833906
v -0.060029 2.722493 5.859179
v -0.058783 2.774129 5.830712
v -0.111914 2.774424 5.857966
v -0.163634 2.774227 5.831318
v -0.164475 2.723243 5.858484
v -0.164486 2.671749 5.832300
v -0.051498 4.644915 2.913130
v -0.104258 4.632220 2.898945
v -0.103243 4.707443 2.936040
v -0.103411 4.710602 3.008230
v -0.052535 4.723020 3.021853
v -0.001468 4.709772 3.009809
v 0.000511 4.706605 2.937646
v 0.001450 4.631363 2.900569
v 3.441569 2.609801 1.009283
v 3.460797 2.646708 0.960725
v 3.442196 2.684828 1.008569
v 3.449516 2.702073 1.081428
v 3.478413 2.647555 1.065459
v 3.448618 2.593823 1.082454
v -0.083805 0.744368 2.950189
v -0.030638 0.756804 2.937396
v -0.032799 0.682294 2.975864
v -0.034837 0.680528 3.048081
v -0.086114 0.668368 3.060366
v -0.136782 0.681366 3.046520
v -0.136568 0.683151 2.974276
v -0.136344 0.757660 2.935754
v -3.541566 2.704187 0.908455
v -0.112795 2.723145 5.885666
v -0.051463 4.720013 2.949975
v 3.466526 2.647180 1.016259
v -0.085004 0.669983 2.988452
vt 0.031593 0.012234
vt 0.013417 -0.000000
vt 0.987744 -0.000000
vt 0.980410 0.011626
vt 0.986583 0.493291
vt 0.961651 0.495594
vt 0.014536 0.022249
vt 0.012256 0.006128
vt 0.031593 0.012234
vt 0.004845 0.009690
vt 0.495752 0.991505
vt 0.505287 0.961500
vt 0.004845 0.009690
vt 0.505287 0.961500
vt 0.495752 0.991505
vt 0.961651 0.495594
vt 0.986583 0.493291
vt 0.012297 0.006149
vt 0.014634 0.022399
vt 0.013417 -0.000000
vt 0.980410 0.011626
vt 0.987703 -0.000000
vt 0.988063 0.505968
vt 0.012689 0.993655
vt 0.013963 0.968482
vt 0.988063 0.505968
vt 0.013963 0.968482
vt 0.012689 0.993655
vt 0.014536 0.022249
vt 0.012254 0.006127
vt 0.986583 0.493291
vt 0.961651 0.495594
vt 0.987746 -0.000000
vt 0.980410 0.011626
vt 0.031593 0.012234
vt 0.013417 -0.000000
vt -0.000000 0.013894
vt -0.000000 0.986184
vt -0.000000 0.013894
vt 0.013963 0.968482
vt -0.000000 0.986184
vt 0.994370 0.011259
vt 0.506358 0.987284
vt 0.505287 0.961500
vt 0.994370 0.011259
vt 0.506358 0.987284
vt 0.505287 0.961500
vt 0.506358 0.987284
vt 0.994374 0.011253
vt 0.980410 0.011626
vt 0.506358 0.987284
vt 0.994374 0.011253
vt 0.495752 0.991505
vt 0.004845 0.009690
vt 0.495752 0.991505
vt 0.031593 0.012234
vt 0.004845 0.009690
vt -0.000000 0.986184
vt -0.000000 0.013841
vt -0.000000 0.986184
vt 0.013963 0.968482
vt 0.014536 0.022249
vt -0.000000 0.013841
vt 0.012689 0.993655
vt 0.988063 0.505969
vt 0.961651 0.495594
vt 0.012689 0.993655
vt 0.988063 0.505969
vt 0.986583 0.493291
vt 0.012256 0.006128
vt 0.013417 -0.000000
vt 0.987744 -0.000000
vt 1.000000 0.500000
vt 0.000000 0.000000
vt 0.000000 0.000000
vt 1.000000 0.500000
vt 1.000000 0.000000
vt 0.000000 0.000000
vt 0.000000 0.000000
vt 1.000000 0.000000
vt 0.500000 1.000000
vt 0.500000 1.000000
vt 0.500000 1.000000
vt 0.500000 1.000000
vt 0.000000 1.000000
vt 0.000000 1.000000
vt 0.000000 1.000000
vt 0.000000 1.000000
vt 0.000000 0.000000
vt 1.000000 0.500000
vt 1.000000 0.500000
vt 0.000000 0.000000
vt 0.000000 0.000000
vt 1.000000 0.000000
vt 1.000000 0.000000
vt 0.000000 0.000000
vt 0.050927 0.025531
vt 0.005015 0.010030
vt 0.493925 0.987850
vt 0.511130 0.950371
vt 0.989970 -0.000000
vt 0.954219 0.030521
vt 0.032171 0.035963
vt 0.012150 -0.000000
vt 0.050927 0.025531
vt 0.008343 -0.000000
vt 0.990378 -0.000000
vt 0.973952 0.024169
vt 0.008343 -0.000000
vt 0.973952 0.024169
vt 0.990378 -0.000000
vt 0.994985 0.010030
vt 0.506075 0.987850
vt 0.489113 0.949847
vt 0.005015 0.010030
vt 0.511130 0.950371
vt 0.493925 0.987850
vt 0.973952 0.024169
vt 0.991931 0.016137
vt 0.510070 0.979860
vt 0.511130 0.950371
vt 0.991931 0.016137
vt 0.510070 0.979860
vt 0.973556 0.024536
vt 0.990269 -0.000000
vt 0.008343 -0.000000
vt 0.050927 0.025531
vt 0.990269 -0.000000
vt 0.050927 0.025531
vt 0.008343 -0.000000
vt 0.991840 0.016321
vt 0.510071 0.979858
vt 0.991840 0.016321
vt 0.511130 0.950371
vt 0.510071 0.979858
vt 0.489719 0.979437
vt 0.010281 0.020562
vt 0.489719 0.979437
vt 0.474924 0.949847
vt 0.017982 0.035963
vt 0.010281 0.020562
vt 0.493926 0.987852
vt 0.005015 0.010030
vt 0.015260 0.030521
vt 0.493926 0.987852
vt 0.005015 0.010030
vt -0.000000 -0.000000
vt -0.000000 -0.000000
vt 0.005015 0.010030
vt 0.493925 0.987850
vt 1.000000 0.000000
vt 0.000000 0.000000
vt 0.000000 0.000000
vt 1.000000 0.000000
vt 1.000000 0.000000
vt 1.000000 0.000000
vt 1.000000 0.000000
vt 0.500000 1.000000
vt 0.500000 1.000000
vt 0.500000 1.000000
vt 0.500000 1.000000
vt 0.000000 0.000000
vt 0.000000 0.000000
vt 0.000000 0.000000
vt 0.000000 0.000000
vt 0.000000 0.000000
vt 0.500000 1.000000
vt 0.500000 1.000000
vn 0.463156 -0.880315 0.102630
vn 0.485473 -0.874162 0.012482
vn 0.592483 -0.732665 -0.334911
vn 0.575778 -0.746948 -0.332488
vn 0.267482 -0.839546 0.472880
vn 0.258636 -0.848020 0.462569
vn 0.604374 0.716382 -0.348610
vn 0.866545 -0.013347 -0.498920
vn 0.596442 0.717524 -0.359744
vn 0.860820 -0.010632 -0.508799
vn 0.584301 -0.734136 -0.345885
vn 0.281468 0.843780 0.456960
vn 0.477613 0.874361 0.085906
vn 0.272695 0.852270 0.446401
vn 0.499643 0.866226 -0.003000
vn 0.588013 0.730861 -0.346528
vn 0.507538 0.005776 0.861610
vn 0.261135 -0.839046 0.477296
vn 0.496471 0.001958 0.868051
vn 0.275022 0.843573 0.461245
vn -0.485433 0.874062 -0.019266
vn -0.465782 0.882019 0.071340
vn -0.272410 0.856689 0.438038
vn -0.281571 0.848420 0.448220
vn -0.565114 0.740241 -0.364266
vn -0.581742 0.725906 -0.366929
vn 0.000670 0.887245 0.461299
vn -0.000226 0.881062 0.473001
vn -0.275369 0.848001 0.452842
vn 0.013909 0.900499 -0.434635
vn -0.573225 0.727178 -0.377658
vn 0.014252 0.893973 -0.447894
vn -0.000785 -0.902436 -0.430824
vn -0.000884 -0.908690 -0.417470
vn -0.585371 -0.724484 -0.363954
vn -0.577351 -0.737569 -0.350225
vn -0.844895 0.000791 -0.534932
vn -0.850857 0.003405 -0.525386
vn -0.593639 -0.723129 -0.353095
vn -0.014509 -0.871797 0.489653
vn -0.014412 -0.878203 0.478072
vn -0.289255 -0.834622 0.468762
vn -0.286495 -0.843581 0.454193
vn -0.522874 0.014613 0.852284
vn -0.295567 -0.834908 0.464295
vn -0.533638 0.010546 0.845647
vn -0.480400 -0.872638 0.087858
vn -0.499903 -0.866077 -0.002617
vn 0.994894 -0.007205 0.100669
vn 0.008508 0.999417 0.033059
vn 0.015320 -0.009505 -0.999837
vn -0.015367 0.009616 0.999836
vn -0.997519 0.008871 0.069833
vn -0.008930 -0.998685 0.050477
vn -0.239393 -0.865905 -0.439204
vn -0.299628 -0.886594 -0.352383
vn -0.648186 -0.634380 0.421208
vn -0.633784 -0.635912 0.440379
vn 0.512490 -0.012405 -0.858604
vn 0.505463 -0.028048 -0.862392
vn -0.828967 0.012120 0.559166
vn -0.818256 0.012367 0.574720
vn -0.637522 0.652913 0.408987
vn -0.628014 0.640437 0.442085
vn -0.638488 -0.621423 0.454055
vn -0.225096 0.861287 -0.455539
vn 0.505751 0.003287 -0.862673
vn -0.284928 0.884530 -0.369355
vn -0.623096 0.654570 0.428124
vn -0.015460 -0.806472 0.591070
vn -0.015557 -0.819495 0.572876
vn 0.614061 -0.631564 0.473346
vn 0.609514 -0.646021 0.459510
vn 0.624487 0.630144 0.461449
vn 0.800352 0.001558 0.599528
vn 0.635193 0.642556 0.428545
vn 0.811453 -0.001218 0.584417
vn 0.624528 -0.644718 0.440799
vn 0.000367 0.817725 0.575610
vn -0.001868 0.830353 0.557235
vn 0.620201 0.644456 0.447244
vn 0.014557 0.003599 -0.999888
vn 0.016205 -0.022849 -0.999608
vn -0.478835 0.011295 -0.877832
vn -0.479126 -0.020035 -0.877517
vn 0.310447 0.879756 -0.360071
vn 0.252998 0.857371 -0.448227
vn -0.485978 -0.004281 -0.873961
vn 0.238509 -0.869659 -0.432210
vn 0.295746 -0.891403 -0.343417
vn -0.978429 0.006359 -0.206483
vn -0.007312 0.017614 0.999818
vn 0.014666 0.871377 -0.490394
vn 0.984313 -0.009942 -0.176148
vn -0.000016 -0.880668 -0.473733
s 1
g polySurface18
usemtl initialShadingGroup
f 1/2/1 45/3/2 2/1/3
f 2/1/3 45/3/2 44/4/4
f 8/6/5 46/7/6 1/5/1
f 1/5/1 46/7/6 45/8/2
f 4/9/7 3/10/8 22/12/9
f 22/12/9 3/10/8 23/11/10
f 3/13/8 2/1/3 23/15/10
f 23/15/10 2/1/3 24/14/11
f 6/16/12 5/17/13 12/19/14
f 12/19/14 5/17/13 13/18/15
f 5/20/13 4/9/7 13/22/15
f 13/22/15 4/9/7 14/21/16
f 8/6/5 7/23/17 26/25/18
f 26/25/18 7/23/17 27/24/19
f 7/26/17 6/16/12 27/28/19
f 27/28/19 6/16/12 28/27/20
f 9/30/21 37/31/22 10/29/23
f 10/29/23 37/31/22 36/32/24
f 16/34/25 38/35/26 9/33/21
f 9/33/21 38/35/26 37/36/22
f 11/37/27 29/38/28 12/19/14
f 12/19/14 29/38/28 28/27/20
f 11/39/27 10/29/23 29/41/28
f 29/41/28 10/29/23 30/40/29
f 16/34/25 15/42/30 20/44/31
f 20/44/31 15/42/30 21/43/32
f 14/21/16 22/12/9 15/45/30
f 15/45/30 22/12/9 21/46/32
f 17/48/33 43/49/34 18/47/35
f 18/47/35 43/49/34 42/50/36
f 17/51/33 24/14/11 43/52/34
f 43/52/34 24/14/11 44/4/4
f 20/44/31 19/53/37 38/35/26
f 38/35/26 19/53/37 39/54/38
f 19/55/37 18/47/35 39/57/38
f 39/57/38 18/47/35 40/56/39
f 26/25/18 25/58/40 46/7/6
f 46/7/6 25/58/40 47/59/41
f 32/61/42 48/62/43 25/60/40
f 25/60/40 48/62/43 47/63/41
f 32/61/42 31/64/44 34/66/45
f 34/66/45 31/64/44 35/65/46
f 31/67/44 30/40/29 35/68/46
f 35/68/46 30/40/29 36/32/24
f 34/66/45 33/69/47 48/62/43
f 48/62/43 33/69/47 41/70/48
f 33/71/47 40/56/39 41/72/48
f 41/72/48 40/56/39 42/50/36
f 4/9/7 22/12/9 14/21/16
f 12/19/14 28/27/20 6/16/12
f 38/35/26 16/34/25 20/44/31
f 10/29/23 36/32/24 30/40/29
f 2/1/3 44/4/4 24/14/11
f 46/7/6 8/6/5 26/25/18
f 40/56/39 18/47/35 42/50/36
f 48/62/43 32/61/42 34/66/45
f 8/6/5 1/5/1 7/23/17
f 7/23/17 1/5/1 49/73/49
f 2/1/3 3/13/8 1/2/1
f 1/2/1 3/13/8 49/74/49
f 4/9/7 5/20/13 3/10/8
f 3/10/8 5/20/13 49/75/49
f 6/16/12 7/26/17 5/17/13
f 5/17/13 7/26/17 49/76/49
f 15/42/30 16/34/25 50/77/50
f 50/77/50 16/34/25 9/33/21
f 10/29/23 11/39/27 9/30/21
f 9/30/21 11/39/27 50/78/50
f 12/19/14 13/18/15 11/37/27
f 11/37/27 13/18/15 50/79/50
f 13/22/15 14/21/16 50/80/50
f 50/80/50 14/21/16 15/45/30
f 24/14/11 17/51/33 23/15/10
f 23/15/10 17/51/33 51/81/51
f 18/47/35 19/55/37 17/48/33
f 17/48/33 19/55/37 51/82/51
f 20/44/31 21/43/32 19/53/37
f 19/53/37 21/43/32 51/83/51
f 22/12/9 23/11/10 21/46/32
f 21/46/32 23/11/10 51/84/51
f 32/61/42 25/60/40 31/64/44
f 31/64/44 25/60/40 52/85/52
f 26/25/18 27/24/19 25/58/40
f 25/58/40 27/24/19 52/86/52
f 28/27/20 29/38/28 27/28/19
f 27/28/19 29/38/28 52/87/52
f 30/40/29 31/67/44 29/41/28
f 29/41/28 31/67/44 52/88/52
f 40/56/39 33/71/47 39/57/38
f 39/57/38 33/71/47 53/89/53
f 34/66/45 35/65/46 33/69/47
f 33/69/47 35/65/46 53/90/53
f 36/32/24 37/31/22 35/68/46
f 35/68/46 37/31/22 53/91/53
f 38/35/26 39/54/38 37/36/22
f 37/36/22 39/54/38 53/92/53
f 48/62/43 41/70/48 47/63/41
f 47/63/41 41/70/48 54/93/54
f 41/72/48 42/50/36 54/94/54
f 54/94/54 42/50/36 43/49/34
f 43/52/34 44/4/4 54/95/54
f 54/95/54 44/4/4 45/3/2
f 46/7/6 47/59/41 45/8/2
f 45/8/2 47/59/41 54/96/54
s 11
f 55/98/55 89/99/56 56/97/57
f 56/97/57 89/99/56 88/100/58
f 60/102/59 90/103/60 55/101/55
f 55/101/55 90/103/60 89/104/56
f 57/106/61 67/107/62 58/105/63
f 58/105/63 67/107/62 66/108/64
f 57/109/61 56/97/57 67/111/62
f 67/111/62 56/97/57 68/110/65
f 60/102/59 59/112/66 70/114/67
f 70/114/67 59/112/66 71/113/68
f 59/115/66 58/105/63 71/117/68
f 71/117/68 58/105/63 72/116/69
f 61/119/70 87/120/71 62/118/72
f 62/118/72 87/120/71 86/121/73
f 61/122/70 68/110/65 87/123/71
f 87/123/71 68/110/65 88/100/58
f 64/124/74 63/125/75 80/127/76
f 80/127/76 63/125/75 81/126/77
f 62/118/72 82/129/78 63/128/75
f 63/128/75 82/129/78 81/130/77
f 65/131/79 73/132/80 66/108/64
f 66/108/64 73/132/80 72/116/69
f 65/133/79 64/124/74 73/135/80
f 73/135/80 64/124/74 74/134/81
f 70/114/67 69/136/82 90/103/60
f 90/103/60 69/136/82 83/137/83
f 69/138/82 76/139/84 83/141/83
f 83/141/83 76/139/84 84/140/85
f 75/142/86 79/143/87 76/139/84
f 76/139/84 79/143/87 78/144/88
f 74/134/81 80/127/76 75/145/86
f 75/145/86 80/127/76 79/146/87
f 78/144/88 77/147/89 84/140/85
f 84/140/85 77/147/89 85/148/90
f 77/149/89 82/129/78 85/150/90
f 85/150/90 82/129/78 86/121/73
f 58/105/63 66/108/64 72/116/69
f 80/127/76 74/134/81 64/124/74
f 56/97/57 88/100/58 68/110/65
f 82/129/78 62/118/72 86/121/73
f 90/103/60 60/102/59 70/114/67
f 76/139/84 78/144/88 84/140/85
f 59/112/66 60/102/59 91/151/91
f 91/151/91 60/102/59 55/101/55
f 56/97/57 57/109/61 55/98/55
f 55/98/55 57/109/61 91/152/91
f 58/105/63 59/115/66 57/106/61
f 57/106/61 59/115/66 91/153/91
f 68/110/65 61/122/70 67/111/62
f 67/111/62 61/122/70 92/154/92
f 62/118/72 63/128/75 61/119/70
f 61/119/70 63/128/75 92/155/92
f 64/124/74 65/133/79 63/125/75
f 63/125/75 65/133/79 92/156/92
f 66/108/64 67/107/62 65/131/79
f 65/131/79 67/107/62 92/157/92
f 76/139/84 69/138/82 75/142/86
f 75/142/86 69/138/82 93/158/93
f 70/114/67 71/113/68 69/136/82
f 69/136/82 71/113/68 93/159/93
f 71/117/68 72/116/69 93/160/93
f 93/160/93 72/116/69 73/132/80
f 73/135/80 74/134/81 93/161/93
f 93/161/93 74/134/81 75/145/86
f 82/129/78 77/149/89 81/130/77
f 81/130/77 77/149/89 94/162/94
f 77/147/89 78/144/88 94/163/94
f 94/163/94 78/144/88 79/143/87
f 80/127/76 81/126/77 79/146/87
f 79/146/87 81/126/77 94/164/94
f 90/103/60 83/137/83 89/104/56
f 89/104/56 83/137/83 95/165/95
f 84/140/85 85/148/90 83/141/83
f 83/141/83 85/148/90 95/166/95
f 85/150/90 86/121/73 95/167/95
f 95/167/95 86/121/73 87/120/71
f 87/123/71 88/100/58 95/168/95
f 95/168/95 88/100/58 89/99/56
